<svg xmlns="http://www.w3.org/2000/svg" xmlns:xlink="http://www.w3.org/1999/xlink" width="638" height="530" viewBox="0 0 638 530">
  <defs>
    <linearGradient id="linear-gradient" x1="0.5" x2="0.5" y2="1" gradientUnits="objectBoundingBox">
      <stop offset="0" stop-color="#0b56cb"/>
      <stop offset="1" stop-color="#062b66"/>
    </linearGradient>
  </defs>
  <g id="Group_3" data-name="Group 3" transform="translate(-153 -287)">
    <text id="Explore_what_excites_you." data-name="Explore what 
excites you." transform="translate(153 371)" fill="#010f26" font-size="85" font-family="CenturyGothic-Bold, Century Gothic" font-weight="700"><tspan x="0" y="0">Explore what </tspan><tspan x="0" y="104">excites you.</tspan></text>
    <text id="Join_elpis_to_share_and_discover_new_skills._Enter_email_to_request_beta_access." data-name="Join elpis to share and discover 
new skills. Enter email to 
request beta access." transform="translate(153 547)" fill="#707070" font-size="36" font-family="CenturyGothic, Century Gothic"><tspan x="0" y="0">Join elpis to share and discover </tspan><tspan x="0" y="44">new skills. Enter email to </tspan><tspan x="0" y="88">request beta access.</tspan></text>
    <g id="Group_2" data-name="Group 2" transform="translate(0 10)">
      <g id="Rectangle_4" data-name="Rectangle 4" transform="translate(153 701)" fill="none" stroke="#707070" stroke-width="2">
        <rect width="638" height="106" rx="53" stroke="none"/>
        <rect x="1" y="1" width="636" height="104" rx="52" fill="none"/>
      </g>
      <path id="Rectangle_5" data-name="Rectangle 5" d="M0,0H179a53,53,0,0,1,53,53v0a53,53,0,0,1-53,53H53A53,53,0,0,1,0,53V0A0,0,0,0,1,0,0Z" transform="translate(559 701)" fill="url(#linear-gradient)"/>
      <g id="send" transform="translate(659 738.008)">
        <line id="Line_1" data-name="Line 1" x1="15" y2="15" transform="translate(15.389 2.389)" fill="none" stroke="#fff" stroke-linecap="round" stroke-linejoin="round" stroke-width="3"/>
        <path id="Path_282" data-name="Path 282" d="M30.786,2,20.711,30.786,14.954,17.832,2,12.075Z" transform="translate(0 -0.008)" fill="none" stroke="#fff" stroke-linecap="round" stroke-linejoin="round" stroke-width="3"/>
      </g>
      <text id="Enter_email" data-name="Enter email" transform="translate(207 766)" fill="#707070" font-size="36" font-family="Calibri"><tspan x="0" y="0">Enter email</tspan></text>
    </g>
  </g>
</svg>
