<svg xmlns="http://www.w3.org/2000/svg" width="483" height="893" viewBox="0 0 483 893">
  <path id="Subtraction_5" data-name="Subtraction 5" d="M446.547,0a449.9,449.9,0,0,0-89.995,9.071A444.13,444.13,0,0,0,196.879,76.255,447.811,447.811,0,0,0,35.092,272.7a444.223,444.223,0,0,0-26.02,83.813,450.81,450.81,0,0,0,0,179.971A444.032,444.032,0,0,0,76.263,696.142,447.847,447.847,0,0,0,272.731,857.912a444.323,444.323,0,0,0,83.821,26.017A449.9,449.9,0,0,0,446.547,893c12.139,0,24.4-.493,36.453-1.466V1.466C470.944.493,458.68,0,446.547,0Z" transform="translate(483 893) rotate(180)" fill="#fff"/>
</svg>
