<svg xmlns="http://www.w3.org/2000/svg" xmlns:xlink="http://www.w3.org/1999/xlink" width="1185" height="1301.999" viewBox="0 0 1185 1301.999">
  <defs>
    <linearGradient id="linear-gradient" x1="0.5" x2="0.5" y2="1" gradientUnits="objectBoundingBox">
      <stop offset="0" stop-color="#2680eb"/>
      <stop offset="1" stop-color="#011021"/>
    </linearGradient>
  </defs>
  <path id="Subtraction_7" data-name="Subtraction 7" d="M1219,1507c-13.687,0-27.524-.43-41.128-1.278-13.479-.84-27.088-2.114-40.449-3.784A651.775,651.775,0,0,1,685,1228.45V483.55A651.91,651.91,0,0,1,983.936,248.734a646.735,646.735,0,0,1,153.486-38.671c13.361-1.67,26.97-2.943,40.449-3.784,13.6-.848,27.441-1.278,41.128-1.278a661.475,661.475,0,0,1,66.561,3.361,652.675,652.675,0,0,1,64.638,9.865c20.973,4.292,41.964,9.689,62.388,16.042,20.2,6.282,40.32,13.647,59.811,21.891,19.312,8.169,38.458,17.392,56.907,27.414,18.318,9.951,36.377,20.922,53.675,32.608,17.215,11.63,34.077,24.239,50.116,37.476,16,13.2,31.554,27.341,46.23,42.017s28.812,30.23,42.017,46.23c13.237,16.04,25.846,32.9,37.476,50.116,11.686,17.3,22.657,35.357,32.609,53.675,10.023,18.45,19.246,37.6,27.414,56.907,8.244,19.492,15.61,39.615,21.891,59.811,6.353,20.428,11.75,41.418,16.042,62.388a652.64,652.64,0,0,1,9.865,64.638,660.748,660.748,0,0,1,0,133.122,652.646,652.646,0,0,1-9.865,64.638c-4.291,20.971-9.688,41.961-16.042,62.388-6.281,20.2-13.647,40.319-21.891,59.811-8.167,19.309-17.39,38.456-27.414,56.907-9.951,18.318-20.922,36.377-32.609,53.675-11.63,17.215-24.239,34.076-37.476,50.116-13.2,16-27.341,31.554-42.017,46.23s-30.23,28.812-46.23,42.017c-16.04,13.238-32.9,25.846-50.116,37.476-17.3,11.687-35.358,22.658-53.675,32.608-18.448,10.022-37.594,19.245-56.907,27.413-19.493,8.245-39.616,15.61-59.811,21.891-20.425,6.353-41.415,11.75-62.388,16.042a652.657,652.657,0,0,1-64.638,9.865A661.457,661.457,0,0,1,1219,1507Z" transform="translate(-685 -205)" fill="url(#linear-gradient)"/>
</svg>
