<svg xmlns="http://www.w3.org/2000/svg" width="744" height="904" viewBox="0 0 744 904">
  <path id="Subtraction_6" data-name="Subtraction 6" d="M899,1157a444.559,444.559,0,0,1-46.214-2.411A437.722,437.722,0,0,1,723.061,1120.3c-13.409-5.861-26.7-12.478-39.511-19.668-12.718-7.139-25.256-15.01-37.267-23.395a458.837,458.837,0,0,1-66.895-57.033,467.447,467.447,0,0,1-55.193-69.124c-8.114-12.41-15.731-25.366-22.64-38.509-6.958-13.236-13.362-26.973-19.034-40.828-5.724-13.985-10.838-28.423-15.2-42.912-4.411-14.654-8.158-29.713-11.138-44.761-3.019-15.245-5.323-30.847-6.849-46.375C447.785,721.938,447,705.871,447,689.939A480.648,480.648,0,0,1,470.255,541.65,471.327,471.327,0,0,1,534.992,413h728.017a471.326,471.326,0,0,1,64.737,128.65A480.649,480.649,0,0,1,1351,689.939c0,15.932-.785,32-2.333,47.754-1.526,15.528-3.831,31.131-6.849,46.375-2.979,15.046-6.727,30.106-11.138,44.761-4.361,14.49-9.475,28.928-15.2,42.912-5.671,13.855-12.075,27.592-19.033,40.828-6.91,13.143-14.527,26.1-22.641,38.509a467.442,467.442,0,0,1-55.193,69.124,458.82,458.82,0,0,1-66.895,57.033c-12.011,8.385-24.549,16.256-37.267,23.395-12.809,7.19-26.1,13.807-39.511,19.668A438.686,438.686,0,0,1,899,1157Z" transform="translate(1157 -447) rotate(90)" fill="#fff"/>
</svg>
