<svg xmlns="http://www.w3.org/2000/svg" width="265" height="490" viewBox="0 0 265 490">
  <path id="Subtraction_2" data-name="Subtraction 2" d="M692,741a246.814,246.814,0,0,1-49.376-4.977,243.66,243.66,0,0,1-87.606-36.865,245.716,245.716,0,0,1-88.765-107.793,243.769,243.769,0,0,1-14.276-45.989,247.391,247.391,0,0,1,0-98.752,243.659,243.659,0,0,1,36.865-87.606,245.716,245.716,0,0,1,107.793-88.765,243.762,243.762,0,0,1,45.989-14.276A246.813,246.813,0,0,1,692,251c6.66,0,13.389.271,20,.8V740.2C705.385,740.729,698.657,741,692,741Z" transform="translate(-447 -251)" fill="#fff"/>
</svg>
