<svg xmlns="http://www.w3.org/2000/svg" xmlns:xlink="http://www.w3.org/1999/xlink" width="360" height="390" viewBox="0 0 360 390">
  <defs>
    <linearGradient id="linear-gradient" x1="0.5" x2="0.5" y2="1" gradientUnits="objectBoundingBox">
      <stop offset="0" stop-color="#2680eb"/>
      <stop offset="1" stop-color="#011021"/>
    </linearGradient>
  </defs>
  <g id="Group_5" data-name="Group 5" transform="translate(0 -4162.635)">
    <circle id="Ellipse_19" data-name="Ellipse 19" cx="97" cy="97" r="97" transform="translate(166 4162.635)" fill="#fff"/>
    <path id="Subtraction_7" data-name="Subtraction 7" d="M156.82,382c-4.019,0-8.083-.126-12.078-.375-3.958-.247-7.955-.62-11.879-1.11A191.408,191.408,0,0,1,0,300.275V81.725A190.718,190.718,0,0,1,132.863,1.485c3.924-.49,7.92-.864,11.879-1.11C148.737.126,152.8,0,156.82,0a194.436,194.436,0,0,1,19.547.986A191.838,191.838,0,0,1,195.349,3.88c6.159,1.259,12.324,2.843,18.322,4.707,5.931,1.843,11.841,4,17.565,6.423,5.671,2.4,11.294,5.1,16.712,8.043,5.379,2.919,10.683,6.138,15.763,9.567,5.056,3.412,10.007,7.112,14.718,11S287.695,51.637,292,55.943s8.461,8.869,12.339,13.564,7.59,9.653,11.006,14.7c3.432,5.075,6.654,10.374,9.576,15.748,2.943,5.413,5.652,11.031,8.051,16.7,2.421,5.719,4.584,11.623,6.429,17.548,1.866,5.993,3.451,12.152,4.711,18.3a191.309,191.309,0,0,1,2.9,18.965,193.671,193.671,0,0,1,0,39.057,191.3,191.3,0,0,1-2.9,18.965c-1.26,6.153-2.845,12.311-4.711,18.3-1.845,5.925-4.008,11.829-6.429,17.548-2.4,5.665-5.107,11.283-8.051,16.7-2.922,5.375-6.144,10.673-9.576,15.748-3.415,5.051-7.118,10-11.006,14.7s-8.029,9.258-12.339,13.564-8.878,8.453-13.577,12.328-9.662,7.583-14.718,11c-5.08,3.429-10.383,6.648-15.763,9.567-5.418,2.94-11.04,5.646-16.712,8.043-5.724,2.419-11.634,4.58-17.565,6.423-6,1.864-12.162,3.447-18.322,4.707a191.842,191.842,0,0,1-18.982,2.894A194.435,194.435,0,0,1,156.82,382Z" transform="translate(0 4170.635)" fill="url(#linear-gradient)"/>
  </g>
</svg>
