<svg xmlns="http://www.w3.org/2000/svg" width="190" height="351" viewBox="0 0 190 351">
  <path id="Subtraction_5" data-name="Subtraction 5" d="M175.66,0a177.117,177.117,0,0,0-35.4,3.566A174.785,174.785,0,0,0,77.447,29.973,176.034,176.034,0,0,0,13.8,107.187,174.5,174.5,0,0,0,3.569,140.131a177.054,177.054,0,0,0,0,70.739A174.455,174.455,0,0,0,30,273.624a176.153,176.153,0,0,0,77.285,63.585,174.889,174.889,0,0,0,32.973,10.226A177.116,177.116,0,0,0,175.66,351c4.775,0,9.6-.194,14.34-.576V.576C185.257.194,180.433,0,175.66,0Z" transform="translate(190 351) rotate(180)" fill="#fff"/>
</svg>
