<svg xmlns="http://www.w3.org/2000/svg" xmlns:xlink="http://www.w3.org/1999/xlink" width="43.313" height="161.077" viewBox="0 0 43.313 161.077">
  <defs>
    <radialGradient id="radial-gradient" cx="0.5" cy="0.5" r="0.492" gradientTransform="matrix(1.447, -0.612, 1.119, 0.791, -0.783, 0.41)" gradientUnits="objectBoundingBox">
      <stop offset="0" stop-color="#0b56cb"/>
      <stop offset="1" stop-color="#062b66"/>
    </radialGradient>
  </defs>
  <path id="Subtraction_8" data-name="Subtraction 8" d="M-2292.686,442.3h0v0a97.054,97.054,0,0,1-17.776-15.139,96.873,96.873,0,0,1-13.666-18.99,96.005,96.005,0,0,1-8.772-22.06,96.842,96.842,0,0,1-3.1-24.348,96.842,96.842,0,0,1,3.1-24.348,96.007,96.007,0,0,1,8.772-22.06,96.874,96.874,0,0,1,13.666-18.99,97.079,97.079,0,0,1,17.778-15.14Z" transform="translate(2336 -281.226)" fill="url(#radial-gradient)"/>
</svg>
