<svg xmlns="http://www.w3.org/2000/svg" width="174" height="143" viewBox="0 0 174 143">
  <path id="Subtraction_1" data-name="Subtraction 1" d="M87,143a85.69,85.69,0,0,1-8.9-.463,84.344,84.344,0,0,1-24.969-6.591c-2.581-1.126-5.14-2.4-7.605-3.78-2.448-1.372-4.861-2.885-7.173-4.5a88.283,88.283,0,0,1-12.876-10.962,89.867,89.867,0,0,1-10.623-13.286c-1.562-2.385-3.028-4.876-4.358-7.4-1.339-2.544-2.572-5.184-3.664-7.847-1.1-2.688-2.086-5.463-2.926-8.248-.849-2.816-1.57-5.711-2.144-8.6C1.186,68.391.743,65.392.449,62.407.151,59.379,0,56.291,0,53.229a92.262,92.262,0,0,1,4.476-28.5A90.542,90.542,0,0,1,16.936,0H157.064a90.541,90.541,0,0,1,12.46,24.727A92.262,92.262,0,0,1,174,53.229c0,3.062-.151,6.15-.449,9.179-.294,2.985-.737,5.983-1.318,8.913-.573,2.892-1.295,5.786-2.144,8.6-.839,2.785-1.824,5.56-2.926,8.248-1.092,2.663-2.324,5.3-3.664,7.847-1.33,2.526-2.8,5.016-4.358,7.4a89.866,89.866,0,0,1-10.624,13.286,88.28,88.28,0,0,1-12.876,10.962c-2.312,1.612-4.725,3.124-7.173,4.5-2.465,1.382-5.024,2.654-7.605,3.78A84.3,84.3,0,0,1,95.9,142.537,85.689,85.689,0,0,1,87,143Z" transform="translate(0)" fill="#fff"/>
</svg>
