<svg xmlns="http://www.w3.org/2000/svg" width="63" height="205.259" viewBox="0 0 63 205.259">
  <path id="Subtraction_9" data-name="Subtraction 9" d="M-2273,489.129h0v0a117.054,117.054,0,0,1-11.639-6.854,117.116,117.116,0,0,1-17.24-14.1,116.554,116.554,0,0,1-14.224-17.094,115.22,115.22,0,0,1-10.741-19.619,114.233,114.233,0,0,1-6.788-21.681A115.411,115.411,0,0,1-2336,386.5a115.393,115.393,0,0,1,2.366-23.277,114.237,114.237,0,0,1,6.788-21.681,115.226,115.226,0,0,1,10.741-19.619,116.539,116.539,0,0,1,14.224-17.094,117.114,117.114,0,0,1,17.24-14.1A117.128,117.128,0,0,1-2273,283.871Z" transform="translate(2336 -283.871)" fill="#fff"/>
</svg>
